<svg width="100" height="100" viewBox="0 0 100 100" fill="none" xmlns="http://www.w3.org/2000/svg">
<path d="M58.6203 31.9167H41.3796C40.025 31.9167 38.9166 33.025 38.9166 34.3796V51.6204C38.9166 52.975 40.025 54.0833 41.3796 54.0833H58.6203C59.975 54.0833 61.0833 52.975 61.0833 51.6204V34.3796C61.0833 33.025 59.975 31.9167 58.6203 31.9167ZM51.2314 49.1574H45.074C44.3967 49.1574 43.8426 48.6032 43.8426 47.9259C43.8426 47.2486 44.3967 46.6944 45.074 46.6944H51.2314C51.9088 46.6944 52.4629 47.2486 52.4629 47.9259C52.4629 48.6032 51.9088 49.1574 51.2314 49.1574ZM54.9259 44.2315H45.074C44.3967 44.2315 43.8426 43.6773 43.8426 43C43.8426 42.3227 44.3967 41.7685 45.074 41.7685H54.9259C55.6032 41.7685 56.1574 42.3227 56.1574 43C56.1574 43.6773 55.6032 44.2315 54.9259 44.2315ZM54.9259 39.3056H45.074C44.3967 39.3056 43.8426 38.7514 43.8426 38.0741C43.8426 37.3968 44.3967 36.8426 45.074 36.8426H54.9259C55.6032 36.8426 56.1574 37.3968 56.1574 38.0741C56.1574 38.7514 55.6032 39.3056 54.9259 39.3056Z" fill="#80868B"/>
<path d="M36.2939 73.408H30.9539V71.824H36.2939V73.408ZM37.2779 69.556H36.2939V71.032H30.9539V69.556H29.9819V74.212H37.2779V69.556ZM38.5139 75.508H28.7459V76.3H33.1139V79.9H34.0979V76.3H38.5139V75.508ZM48.6369 74.932H42.2409V73.228H48.2889V72.448H42.2409V70.852H48.5289V70.06H41.2449V75.724H48.6369V74.932ZM39.9849 77.692V78.496H49.7529V77.692H39.9849ZM52.316 77.476H58.724V79.9H59.708V76.684H52.316V77.476ZM56.588 74.932V73.792H59.828V73.024H53.492V71.944H59.48V71.2H53.492V70.18H59.768V69.412H52.508V73.792H55.604V74.932H51.224V75.724H60.968V74.932H56.588ZM63.5551 77.476H69.9631V79.9H70.9471V76.684H63.5551V77.476ZM67.8271 74.932V73.792H71.0671V73.024H64.7311V71.944H70.7191V71.2H64.7311V70.18H71.0071V69.412H63.7471V73.792H66.8431V74.932H62.4631V75.724H72.2071V74.932H67.8271Z" fill="#80868B"/>
</svg>
