<svg width="64" height="48" viewBox="0 0 64 48" fill="none" xmlns="http://www.w3.org/2000/svg">
<path d="M37.4444 9H26.5556C25.7 9 25 9.7 25 10.5556V21.4444C25 22.3 25.7 23 26.5556 23H37.4444C38.3 23 39 22.3 39 21.4444V10.5556C39 9.7 38.3 9 37.4444 9ZM32.7778 19.8889H28.8889C28.4611 19.8889 28.1111 19.5389 28.1111 19.1111C28.1111 18.6833 28.4611 18.3333 28.8889 18.3333H32.7778C33.2056 18.3333 33.5556 18.6833 33.5556 19.1111C33.5556 19.5389 33.2056 19.8889 32.7778 19.8889ZM35.1111 16.7778H28.8889C28.4611 16.7778 28.1111 16.4278 28.1111 16C28.1111 15.5722 28.4611 15.2222 28.8889 15.2222H35.1111C35.5389 15.2222 35.8889 15.5722 35.8889 16C35.8889 16.4278 35.5389 16.7778 35.1111 16.7778ZM35.1111 13.6667H28.8889C28.4611 13.6667 28.1111 13.3167 28.1111 12.8889C28.1111 12.4611 28.4611 12.1111 28.8889 12.1111H35.1111C35.5389 12.1111 35.8889 12.4611 35.8889 12.8889C35.8889 13.3167 35.5389 13.6667 35.1111 13.6667Z" fill="#F8F9FA"/>
<path d="M20.1116 34.34H15.6616V33.02H20.1116V34.34ZM20.9316 31.13H20.1116V32.36H15.6616V31.13H14.8516V35.01H20.9316V31.13ZM21.9616 36.09H13.8216V36.75H17.4616V39.75H18.2816V36.75H21.9616V36.09ZM30.4308 35.61H25.1008V34.19H30.1408V33.54H25.1008V32.21H30.3408V31.55H24.2708V36.27H30.4308V35.61ZM23.2208 37.91V38.58H31.3608V37.91H23.2208ZM33.53 37.73H38.87V39.75H39.69V37.07H33.53V37.73ZM37.09 35.61V34.66H39.79V34.02H34.51V33.12H39.5V32.5H34.51V31.65H39.74V31.01H33.69V34.66H36.27V35.61H32.62V36.27H40.74V35.61H37.09ZM42.9292 37.73H48.2692V39.75H49.0892V37.07H42.9292V37.73ZM46.4892 35.61V34.66H49.1892V34.02H43.9092V33.12H48.8992V32.5H43.9092V31.65H49.1392V31.01H43.0892V34.66H45.6692V35.61H42.0192V36.27H50.1392V35.61H46.4892Z" fill="#F8F9FA"/>
</svg>
