<svg width="100" height="100" viewBox="0 0 100 100" fill="none" xmlns="http://www.w3.org/2000/svg">
<g filter="url(#filter0_d)">
<path d="M42.083 35.0833C42.083 33.3344 43.5008 31.9167 45.2497 31.9167H51.051C53.3141 31.9167 55.0706 32.4655 56.3203 33.5633C57.587 34.6611 58.2203 36.1642 58.2203 38.0727C58.2203 38.8327 57.9923 39.5758 57.5363 40.302C57.0803 41.0113 56.5061 41.4927 55.8137 41.746C56.7932 42.0669 57.5955 42.658 58.2203 43.5193C58.8621 44.3638 59.183 45.2927 59.183 46.306C59.183 47.5727 58.8875 48.6789 58.2963 49.6247C57.7221 50.5704 56.8777 51.2967 55.763 51.8033C54.6483 52.31 53.331 52.5633 51.811 52.5633H45.2497C43.5008 52.5633 42.083 51.1456 42.083 49.3967V35.0833ZM50.8483 40.2767C51.7266 40.2767 52.4021 40.0909 52.875 39.7193C53.3648 39.3309 53.6097 38.782 53.6097 38.0727C53.6097 37.3464 53.3648 36.7975 52.875 36.426C52.4021 36.0375 51.7266 35.8433 50.8483 35.8433H46.6937V40.2767H50.8483ZM51.6083 48.6367C52.5372 48.6367 53.2635 48.434 53.787 48.0287C54.3106 47.6233 54.5723 47.0491 54.5723 46.306C54.5723 45.5629 54.3106 44.9887 53.787 44.5833C53.2635 44.178 52.5372 43.9753 51.6083 43.9753H46.6937V48.6367H51.6083Z" fill="#F8F9FA"/>
</g>
<path d="M36.2939 73.408H30.9539V71.824H36.2939V73.408ZM37.2779 69.556H36.2939V71.032H30.9539V69.556H29.9819V74.212H37.2779V69.556ZM38.5139 75.508H28.7459V76.3H33.1139V79.9H34.0979V76.3H38.5139V75.508ZM48.6369 74.932H42.2409V73.228H48.2889V72.448H42.2409V70.852H48.5289V70.06H41.2449V75.724H48.6369V74.932ZM39.9849 77.692V78.496H49.7529V77.692H39.9849ZM51.836 69.844V70.648H55.04C55.004 71.056 54.92 71.44 54.8 71.812L51.332 72.028L51.488 72.844L54.464 72.532C53.888 73.528 52.88 74.356 51.356 74.956L51.836 75.688C54.776 74.476 56.024 72.448 56.024 69.844H51.836ZM54.212 76.768H59.348V78.952H54.212V76.768ZM53.252 79.744H60.32V75.976H53.252V79.744ZM59.372 69.124V71.86H57.956V69.328H57.02V75.388H57.956V72.664H59.372V75.46H60.32V69.124H59.372ZM68.6671 74.74H65.9911V70.996H68.6671V74.74ZM65.0071 74.74H63.3631V75.544H71.2951V74.74H69.6511V70.996H71.3191V70.204H63.3391V70.996H65.0071V74.74ZM62.4751 77.692V78.508H72.2311V77.692H62.4751Z" fill="#F8F9FA"/>
<defs>
<filter id="filter0_d" x="27" y="24" width="46" height="46" filterUnits="userSpaceOnUse" color-interpolation-filters="sRGB">
<feFlood flood-opacity="0" result="BackgroundImageFix"/>
<feColorMatrix in="SourceAlpha" type="matrix" values="0 0 0 0 0 0 0 0 0 0 0 0 0 0 0 0 0 0 127 0" result="hardAlpha"/>
<feOffset dy="4"/>
<feGaussianBlur stdDeviation="2"/>
<feComposite in2="hardAlpha" operator="out"/>
<feColorMatrix type="matrix" values="0 0 0 0 0 0 0 0 0 0 0 0 0 0 0 0 0 0 0.25 0"/>
<feBlend mode="normal" in2="BackgroundImageFix" result="effect1_dropShadow"/>
<feBlend mode="normal" in="SourceGraphic" in2="effect1_dropShadow" result="shape"/>
</filter>
</defs>
</svg>
