<svg width="100" height="100" viewBox="0 0 100 100" fill="none" xmlns="http://www.w3.org/2000/svg">
<g filter="url(#filter0_d)">
<path d="M42.0834 35.0833C42.0834 33.3344 43.5011 31.9167 45.25 31.9167H51.0514C53.3145 31.9167 55.0709 32.4655 56.3207 33.5633C57.5874 34.6611 58.2207 36.1642 58.2207 38.0727C58.2207 38.8327 57.9927 39.5758 57.5367 40.302C57.0807 41.0113 56.5065 41.4927 55.814 41.746C56.7936 42.0669 57.5958 42.658 58.2207 43.5193C58.8625 44.3638 59.1834 45.2927 59.1834 46.306C59.1834 47.5727 58.8878 48.6789 58.2967 49.6247C57.7225 50.5704 56.878 51.2967 55.7634 51.8033C54.6487 52.31 53.3314 52.5633 51.8114 52.5633H45.25C43.5011 52.5633 42.0834 51.1456 42.0834 49.3967V35.0833ZM50.8487 40.2767C51.7269 40.2767 52.4025 40.0909 52.8754 39.7193C53.3652 39.3309 53.61 38.782 53.61 38.0727C53.61 37.3464 53.3652 36.7975 52.8754 36.426C52.4025 36.0375 51.7269 35.8433 50.8487 35.8433H46.694V40.2767H50.8487ZM51.6087 48.6367C52.5376 48.6367 53.2638 48.434 53.7874 48.0287C54.3109 47.6233 54.5727 47.0491 54.5727 46.306C54.5727 45.5629 54.3109 44.9887 53.7874 44.5833C53.2638 44.178 52.5376 43.9753 51.6087 43.9753H46.694V48.6367H51.6087Z" fill="#80868B"/>
</g>
<path d="M36.2939 73.408H30.9539V71.824H36.2939V73.408ZM37.2779 69.556H36.2939V71.032H30.9539V69.556H29.9819V74.212H37.2779V69.556ZM38.5139 75.508H28.7459V76.3H33.1139V79.9H34.0979V76.3H38.5139V75.508ZM48.6369 74.932H42.2409V73.228H48.2889V72.448H42.2409V70.852H48.5289V70.06H41.2449V75.724H48.6369V74.932ZM39.9849 77.692V78.496H49.7529V77.692H39.9849ZM51.836 69.844V70.648H55.04C55.004 71.056 54.92 71.44 54.8 71.812L51.332 72.028L51.488 72.844L54.464 72.532C53.888 73.528 52.88 74.356 51.356 74.956L51.836 75.688C54.776 74.476 56.024 72.448 56.024 69.844H51.836ZM54.212 76.768H59.348V78.952H54.212V76.768ZM53.252 79.744H60.32V75.976H53.252V79.744ZM59.372 69.124V71.86H57.956V69.328H57.02V75.388H57.956V72.664H59.372V75.46H60.32V69.124H59.372ZM68.6671 74.74H65.9911V70.996H68.6671V74.74ZM65.0071 74.74H63.3631V75.544H71.2951V74.74H69.6511V70.996H71.3191V70.204H63.3391V70.996H65.0071V74.74ZM62.4751 77.692V78.508H72.2311V77.692H62.4751Z" fill="#80868B"/>
<defs>
<filter id="filter0_d" x="27" y="24" width="46" height="46" filterUnits="userSpaceOnUse" color-interpolation-filters="sRGB">
<feFlood flood-opacity="0" result="BackgroundImageFix"/>
<feColorMatrix in="SourceAlpha" type="matrix" values="0 0 0 0 0 0 0 0 0 0 0 0 0 0 0 0 0 0 127 0" result="hardAlpha"/>
<feOffset dy="4"/>
<feGaussianBlur stdDeviation="2"/>
<feComposite in2="hardAlpha" operator="out"/>
<feColorMatrix type="matrix" values="0 0 0 0 0 0 0 0 0 0 0 0 0 0 0 0 0 0 0.25 0"/>
<feBlend mode="normal" in2="BackgroundImageFix" result="effect1_dropShadow"/>
<feBlend mode="normal" in="SourceGraphic" in2="effect1_dropShadow" result="shape"/>
</filter>
</defs>
</svg>
