<svg width="64" height="48" viewBox="0 0 64 48" fill="none" xmlns="http://www.w3.org/2000/svg">
<g filter="url(#filter0_d)">
<path d="M27 11C27 9.89543 27.8954 9 29 9H32.664C34.0933 9 35.2027 9.34667 35.992 10.04C36.792 10.7333 37.192 11.6827 37.192 12.888C37.192 13.368 37.048 13.8373 36.76 14.296C36.472 14.744 36.1093 15.048 35.672 15.208C36.2907 15.4107 36.7973 15.784 37.192 16.328C37.5973 16.8613 37.8 17.448 37.8 18.088C37.8 18.888 37.6133 19.5867 37.24 20.184C36.8773 20.7813 36.344 21.24 35.64 21.56C34.936 21.88 34.104 22.04 33.144 22.04H29C27.8954 22.04 27 21.1446 27 20.04V11ZM32.536 14.28C33.0907 14.28 33.5173 14.1627 33.816 13.928C34.1253 13.6827 34.28 13.336 34.28 12.888C34.28 12.4293 34.1253 12.0827 33.816 11.848C33.5173 11.6027 33.0907 11.48 32.536 11.48H29.912V14.28H32.536ZM33.016 19.56C33.6027 19.56 34.0613 19.432 34.392 19.176C34.7227 18.92 34.888 18.5573 34.888 18.088C34.888 17.6187 34.7227 17.256 34.392 17C34.0613 16.744 33.6027 16.616 33.016 16.616H29.912V19.56H33.016Z" fill="#80868B"/>
</g>
<path d="M20.1116 34.34H15.6616V33.02H20.1116V34.34ZM20.9316 31.13H20.1116V32.36H15.6616V31.13H14.8516V35.01H20.9316V31.13ZM21.9616 36.09H13.8216V36.75H17.4616V39.75H18.2816V36.75H21.9616V36.09ZM30.4308 35.61H25.1008V34.19H30.1408V33.54H25.1008V32.21H30.3408V31.55H24.2708V36.27H30.4308V35.61ZM23.2208 37.91V38.58H31.3608V37.91H23.2208ZM33.13 31.37V32.04H35.8C35.77 32.38 35.7 32.7 35.6 33.01L32.71 33.19L32.84 33.87L35.32 33.61C34.84 34.44 34 35.13 32.73 35.63L33.13 36.24C35.58 35.23 36.62 33.54 36.62 31.37H33.13ZM35.11 37.14H39.39V38.96H35.11V37.14ZM34.31 39.62H40.2V36.48H34.31V39.62ZM39.41 30.77V33.05H38.23V30.94H37.45V35.99H38.23V33.72H39.41V36.05H40.2V30.77H39.41ZM47.1892 35.45H44.9592V32.33H47.1892V35.45ZM44.1392 35.45H42.7692V36.12H49.3792V35.45H48.0092V32.33H49.3992V31.67H42.7492V32.33H44.1392V35.45ZM42.0292 37.91V38.59H50.1592V37.91H42.0292Z" fill="#80868B"/>
<defs>
<filter id="filter0_d" x="16" y="4" width="32" height="32" filterUnits="userSpaceOnUse" color-interpolation-filters="sRGB">
<feFlood flood-opacity="0" result="BackgroundImageFix"/>
<feColorMatrix in="SourceAlpha" type="matrix" values="0 0 0 0 0 0 0 0 0 0 0 0 0 0 0 0 0 0 127 0" result="hardAlpha"/>
<feOffset dy="4"/>
<feGaussianBlur stdDeviation="2"/>
<feComposite in2="hardAlpha" operator="out"/>
<feColorMatrix type="matrix" values="0 0 0 0 0 0 0 0 0 0 0 0 0 0 0 0 0 0 0.25 0"/>
<feBlend mode="normal" in2="BackgroundImageFix" result="effect1_dropShadow"/>
<feBlend mode="normal" in="SourceGraphic" in2="effect1_dropShadow" result="shape"/>
</filter>
</defs>
</svg>
