<svg width="64" height="48" viewBox="0 0 64 48" fill="none" xmlns="http://www.w3.org/2000/svg">
<path d="M30.0413 23.0393V18.236H33.9543V23.0393C33.9543 23.5677 34.3945 24 34.9326 24H37.8673C38.4054 24 38.8456 23.5677 38.8456 23.0393V16.3146H40.5086C40.9586 16.3146 41.1738 15.767 40.8315 15.4788L32.6533 8.24497C32.2815 7.91834 31.7141 7.91834 31.3424 8.24497L23.1642 15.4788C22.8316 15.767 23.037 16.3146 23.487 16.3146H25.1501V23.0393C25.1501 23.5677 25.5903 24 26.1283 24H29.0631C29.6011 24 30.0413 23.5677 30.0413 23.0393Z" fill="#F8F9FA"/>
<path d="M35.5704 31.51H32.4004V30.65H31.5804V31.51H28.3504V32.15H35.5704V31.51ZM29.7304 37.69H34.2504V39H29.7304V37.69ZM28.9304 39.62H35.0504V37.07H28.9304V39.62ZM29.9504 33.77C29.9504 33.33 30.6804 33.08 31.9904 33.08C33.2804 33.08 34.0104 33.33 34.0104 33.77C34.0104 34.22 33.2804 34.47 31.9904 34.47C30.6804 34.47 29.9504 34.22 29.9504 33.77ZM32.4004 35.72V35.04C33.9804 34.98 34.8804 34.54 34.8804 33.77C34.8804 32.94 33.8304 32.5 31.9904 32.5C30.1304 32.5 29.0904 32.94 29.0904 33.77C29.0904 34.54 29.9804 34.98 31.5804 35.04V35.72H27.9304V36.37H36.0304V35.72H32.4004Z" fill="#F8F9FA"/>
</svg>
