<svg width="100" height="100" viewBox="0 0 100 100" fill="none" xmlns="http://www.w3.org/2000/svg">
<path d="M46.8988 54.1456V46.5403H53.0944V54.1456C53.0944 54.9822 53.7914 55.6667 54.6433 55.6667H59.29C60.1419 55.6667 60.8389 54.9822 60.8389 54.1456V43.4982H63.472C64.1845 43.4982 64.5252 42.6312 63.9831 42.1748L51.0343 30.7212C50.4457 30.2041 49.5474 30.2041 48.9588 30.7212L36.01 42.1748C35.4834 42.6312 35.8086 43.4982 36.5211 43.4982H39.1543V54.1456C39.1543 54.9822 39.8513 55.6667 40.7032 55.6667H45.3499C46.2018 55.6667 46.8988 54.9822 46.8988 54.1456Z" fill="#F8F9FA"/>
<path d="M54.2845 70.012H50.4805V68.98H49.4965V70.012H45.6205V70.78H54.2845V70.012ZM47.2765 77.428H52.7005V79H47.2765V77.428ZM46.3165 79.744H53.6605V76.684H46.3165V79.744ZM47.5405 72.724C47.5405 72.196 48.4165 71.896 49.9885 71.896C51.5365 71.896 52.4125 72.196 52.4125 72.724C52.4125 73.264 51.5365 73.564 49.9885 73.564C48.4165 73.564 47.5405 73.264 47.5405 72.724ZM50.4805 75.064V74.248C52.3765 74.176 53.4565 73.648 53.4565 72.724C53.4565 71.728 52.1965 71.2 49.9885 71.2C47.7565 71.2 46.5085 71.728 46.5085 72.724C46.5085 73.648 47.5765 74.176 49.4965 74.248V75.064H45.1165V75.844H54.8365V75.064H50.4805Z" fill="#F8F9FA"/>
</svg>
