<svg width="300" height="84" viewBox="0 0 300 84" fill="none" xmlns="http://www.w3.org/2000/svg">
<path d="M83.9124 65.0325L80.4556 53.6353C82.3969 50.0032 83.4239 45.9202 83.4239 41.7871C83.4239 27.91 72.1394 16.6255 58.2623 16.6255C49.8584 16.6255 42.4063 20.7711 37.8349 27.1085C28.0408 28.3985 20.4509 36.8024 20.4509 46.9472C20.4509 50.1785 21.24 53.3723 22.7304 56.2153L20.0877 64.9324C19.8873 65.6087 20.0627 66.3476 20.5637 66.8486C20.9269 67.2118 21.4278 67.4122 21.9288 67.4122C22.1167 67.4122 22.3046 67.3871 22.4924 67.3245L31.1969 64.6819C34.04 66.1723 37.2337 66.9613 40.465 66.9613C43.4584 66.9613 46.3014 66.2975 48.8564 65.1202C51.7621 66.2975 54.9433 66.9488 58.2623 66.9488C62.4079 66.9488 66.4783 65.9218 70.1104 63.9805L81.5077 67.4372C81.6955 67.4873 81.8834 67.5249 82.0713 67.5249C82.5723 67.5249 83.0732 67.3245 83.4364 66.9613C83.9374 66.4603 84.1253 65.7214 83.9124 65.0325ZM71.1625 60.9245C70.6239 60.7617 70.0478 60.8243 69.5593 61.1124C66.1777 63.0662 62.3202 64.1057 58.3875 64.1057C46.076 64.1057 36.0689 54.0987 36.0689 41.7871C36.0689 29.4756 46.076 19.4685 58.3875 19.4685C70.6991 19.4685 80.7061 29.4756 80.7061 41.7871C80.7061 45.7198 79.6666 49.5774 77.7128 52.959C77.4372 53.4474 77.3621 54.0235 77.5249 54.5621L80.2928 63.705L71.1625 60.9245Z" fill="#7879F1"/>
<path d="M62.0331 30.7672C61.3307 30.5464 60.5821 30.9368 60.3613 31.6393L54.2711 51.0138C54.0503 51.7162 54.4408 52.4648 55.1433 52.6856C55.846 52.9065 56.5944 52.5158 56.8151 51.8135L62.9053 32.439C63.1261 31.7364 62.7356 30.988 62.0331 30.7672Z" fill="white"/>
<path d="M51.6292 35.9416C51.1691 35.3328 50.3299 35.2341 49.7552 35.7212L43.0884 41.3682C42.4218 41.9326 42.4213 43.0081 43.0884 43.5729L49.7552 49.2199C50.3302 49.7071 51.1694 49.6083 51.6292 48.9995C52.0893 48.3907 51.9961 47.5022 51.421 47.0153L46.0557 42.4706L51.421 37.926C51.9961 37.4389 52.0893 36.5505 51.6292 35.9416Z" fill="white"/>
<path d="M74.0881 41.3682L67.4213 35.7212C66.8463 35.2341 66.0072 35.3328 65.5472 35.9416C65.0872 36.5505 65.1804 37.4389 65.7555 37.9259L71.1208 42.4706L65.7555 47.0153C65.1804 47.5023 65.0872 48.3907 65.5472 48.9995C66.0079 49.609 66.8471 49.7065 67.4213 49.2199L74.0881 43.5729C74.7547 43.0085 74.7552 41.9331 74.0881 41.3682Z" fill="white"/>
<path d="M120.396 39.7811V42.2957H96V39.7811H106.696V35.3667H97.6302V20.447H118.794V22.9057H100.462V26.6496H118.479V29.0803H100.462V32.908H119.166V35.3667H109.556V39.7811H120.396Z" fill="#7879F1"/>
<path d="M143.602 31.7905H125.441V29.22H143.602V23.0454H125.441V20.447H146.462V37.4342H143.602V31.7905ZM148.264 39.6973V42.2957H123.868V39.6973H148.264Z" fill="#7879F1"/>
<path d="M174.416 32.2375H153.424V20H156.226V23.3527H171.613V20H174.416V32.2375ZM171.613 29.7788V25.8114H156.226V29.7788H171.613ZM176.132 37.3504H165.378V44H162.461V37.3504H151.736V34.78H176.132V37.3504Z" fill="#7879F1"/>
<path d="M202.77 35.702H181.235V20.447H202.398V22.9336H184.066V26.8452H202.084V29.2759H184.066V33.2154H202.77V35.702ZM204 39.7532V42.2957H179.604V39.7532H204Z" fill="#7879F1"/>
<path d="M107.69 58.496H97.7779V52.518H98.3659V54.688H107.102V52.518H107.69V58.496ZM107.102 57.95V55.234H98.3659V57.95H107.102ZM108.642 60.596H103.028V64.474H102.44V60.596H96.8259V60.05H108.642V60.596Z" fill="#A5A6F6"/>
<path d="M121.651 60.162H111.417V52.798H121.427V53.344H112.005V56.2H121.315V56.746H112.005V59.616H121.651V60.162ZM122.309 62.948V63.494H110.493V62.948H122.309Z" fill="#A5A6F6"/>
<path d="M135.346 52.238V59.126H134.758V55.584H132.014V59H131.426V52.322H132.014V55.038H134.758V52.238H135.346ZM129.27 54.506C129.27 55.402 129.05 56.158 128.612 56.774C128.182 57.39 127.604 57.8473 126.876 58.146C126.157 58.4447 125.364 58.594 124.496 58.594V58.034C125.476 58.034 126.325 57.8427 127.044 57.46C127.762 57.0773 128.243 56.494 128.486 55.71H124.496V55.164H128.626C128.654 54.9493 128.668 54.73 128.668 54.506V53.204H124.496V52.658H129.27V54.506ZM125.336 59.966H135.346V63.914H125.336V59.966ZM125.924 63.368H134.758V60.512H125.924V63.368Z" fill="#A5A6F6"/>
<path d="M148.788 52.238V64.194H148.186V57.992H145.554V57.446H148.186V52.238H148.788ZM144.224 62.696C145.158 62.5747 145.97 62.3367 146.66 61.982V62.584C146.222 62.8173 145.606 63.004 144.812 63.144C144.028 63.284 143.118 63.354 142.082 63.354H138.036V62.808H139.744V53.344H138.078V52.798H145.89V53.344H144.224V62.696ZM142.04 62.808C142.684 62.808 143.216 62.7893 143.636 62.752V53.344H140.332V62.808H142.04Z" fill="#A5A6F6"/>
<path d="M162.371 53.036H153.061V55.514H162.511V56.046H152.473V52.504H162.371V53.036ZM163.309 58.062H151.493V57.516H163.309V58.062ZM162.399 61.954H152.991V63.396H162.665V63.928H152.417V61.436H161.825V60.036H152.389V59.504H162.399V61.954Z" fill="#A5A6F6"/>
<path d="M176.052 64.194H175.464V52.238H176.052V64.194ZM169.234 52.63C169.925 52.63 170.541 52.7887 171.082 53.106C171.633 53.414 172.062 53.848 172.37 54.408C172.678 54.968 172.832 55.598 172.832 56.298C172.832 56.998 172.678 57.628 172.37 58.188C172.062 58.748 171.633 59.1867 171.082 59.504C170.541 59.812 169.925 59.966 169.234 59.966C168.543 59.966 167.923 59.812 167.372 59.504C166.831 59.1867 166.406 58.748 166.098 58.188C165.79 57.628 165.636 56.998 165.636 56.298C165.636 55.598 165.79 54.968 166.098 54.408C166.406 53.848 166.831 53.414 167.372 53.106C167.923 52.7887 168.543 52.63 169.234 52.63ZM169.234 53.176C168.646 53.176 168.123 53.3113 167.666 53.582C167.209 53.8527 166.854 54.226 166.602 54.702C166.359 55.178 166.238 55.71 166.238 56.298C166.238 56.886 166.359 57.418 166.602 57.894C166.854 58.37 167.209 58.7433 167.666 59.014C168.123 59.2847 168.646 59.42 169.234 59.42C169.822 59.42 170.345 59.2847 170.802 59.014C171.259 58.7433 171.609 58.37 171.852 57.894C172.104 57.418 172.23 56.886 172.23 56.298C172.23 55.71 172.104 55.178 171.852 54.702C171.609 54.226 171.259 53.8527 170.802 53.582C170.345 53.3113 169.822 53.176 169.234 53.176ZM174.19 62.724C173.77 62.92 173.154 63.074 172.342 63.186C171.53 63.298 170.592 63.354 169.528 63.354H165.16V62.808H169.612C170.657 62.808 171.572 62.752 172.356 62.64C173.149 62.528 173.761 62.3693 174.19 62.164V62.724Z" fill="#A5A6F6"/>
<path d="M188.677 54.352C188.061 55.136 187.272 55.7613 186.311 56.228C185.349 56.6947 184.402 56.942 183.469 56.97V56.41C184.262 56.382 185.065 56.1813 185.877 55.808C186.698 55.4253 187.407 54.9027 188.005 54.24C188.611 53.5773 188.999 52.8307 189.167 52L189.741 52.084C189.619 52.7187 189.377 53.3207 189.013 53.89L194.221 56.564L193.955 57.04L188.677 54.352ZM194.767 58.524V59.07H182.951V58.524H188.565V56.368H189.153V58.524H194.767ZM183.763 60.708H193.829V64.096H193.241V61.254H183.763V60.708Z" fill="#A5A6F6"/>
<path d="M207.467 52.238V64.194H206.879V52.238H207.467ZM201.601 52.602C201.583 54.5433 201.419 56.228 201.111 57.656L205.241 62.976L204.779 63.326L200.957 58.342C200.584 59.8167 200.052 60.988 199.361 61.856C198.68 62.724 197.868 63.2233 196.925 63.354V62.808C197.812 62.64 198.559 62.0753 199.165 61.114C199.781 60.1433 200.239 58.916 200.537 57.432C200.845 55.948 201.004 54.3333 201.013 52.588L201.601 52.602Z" fill="#A5A6F6"/>
<path d="M220.644 59.952V52.238H221.232V61.66H220.644V60.484H216.57V59.952H220.644ZM214.554 56.872C213.527 56.872 212.697 56.676 212.062 56.284C211.437 55.8827 211.124 55.332 211.124 54.632C211.124 53.932 211.437 53.386 212.062 52.994C212.697 52.5927 213.527 52.392 214.554 52.392C215.581 52.392 216.407 52.5927 217.032 52.994C217.667 53.386 217.984 53.932 217.984 54.632C217.984 55.332 217.667 55.8827 217.032 56.284C216.407 56.676 215.581 56.872 214.554 56.872ZM214.554 52.924C213.714 52.924 213.028 53.0733 212.496 53.372C211.973 53.6613 211.712 54.0813 211.712 54.632C211.712 55.1827 211.973 55.6073 212.496 55.906C213.028 56.1953 213.714 56.34 214.554 56.34C215.394 56.34 216.075 56.1953 216.598 55.906C217.13 55.6073 217.396 55.1827 217.396 54.632C217.396 54.0813 217.13 53.6613 216.598 53.372C216.075 53.0733 215.394 52.924 214.554 52.924ZM213.966 58.622H210.298V58.076H214.792C217.06 58.076 218.586 57.908 219.37 57.572V58.118C218.633 58.454 217.088 58.622 214.736 58.622H214.554V61.086H213.966V58.622ZM221.666 63.368V63.914H211.516V60.414H212.104V63.368H221.666Z" fill="#A5A6F6"/>
<path d="M232.057 54.184H223.979V53.638H227.717V52.028H228.305V53.638H232.057V54.184ZM236.355 55.92V56.466H234.465V61.24H233.877V52.238H234.465V55.92H236.355ZM228.011 60.008C227.348 60.008 226.756 59.91 226.233 59.714C225.72 59.518 225.314 59.238 225.015 58.874C224.726 58.5007 224.581 58.0667 224.581 57.572C224.581 57.0773 224.726 56.648 225.015 56.284C225.314 55.9107 225.72 55.626 226.233 55.43C226.756 55.234 227.348 55.136 228.011 55.136C228.674 55.136 229.262 55.234 229.775 55.43C230.298 55.626 230.704 55.9107 230.993 56.284C231.292 56.648 231.441 57.0773 231.441 57.572C231.441 58.0667 231.292 58.5007 230.993 58.874C230.704 59.238 230.298 59.518 229.775 59.714C229.262 59.91 228.674 60.008 228.011 60.008ZM228.011 55.668C227.143 55.668 226.452 55.8453 225.939 56.2C225.426 56.5453 225.169 57.0027 225.169 57.572C225.169 58.1413 225.426 58.6033 225.939 58.958C226.452 59.3033 227.143 59.476 228.011 59.476C228.879 59.476 229.57 59.3033 230.083 58.958C230.596 58.6033 230.853 58.1413 230.853 57.572C230.853 57.0027 230.596 56.5453 230.083 56.2C229.57 55.8453 228.879 55.668 228.011 55.668ZM225.491 63.368H234.913V63.914H224.903V60.974H225.491V63.368Z" fill="#A5A6F6"/>
<path d="M252.606 64.194H252.004V52.238H252.606V64.194ZM245.886 52.63C246.576 52.63 247.183 52.8307 247.706 53.232C248.228 53.6333 248.639 54.2447 248.938 55.066C249.236 55.878 249.386 56.8813 249.386 58.076C249.386 59.2707 249.236 60.2787 248.938 61.1C248.639 61.912 248.228 62.5187 247.706 62.92C247.183 63.3213 246.576 63.522 245.886 63.522C245.195 63.522 244.588 63.3213 244.066 62.92C243.543 62.5187 243.132 61.912 242.834 61.1C242.535 60.2787 242.386 59.2707 242.386 58.076C242.386 56.8813 242.535 55.878 242.834 55.066C243.132 54.2447 243.543 53.6333 244.066 53.232C244.588 52.8307 245.195 52.63 245.886 52.63ZM245.886 53.176C245.326 53.176 244.826 53.358 244.388 53.722C243.949 54.086 243.604 54.6367 243.352 55.374C243.109 56.102 242.988 57.0027 242.988 58.076C242.988 59.1493 243.109 60.0547 243.352 60.792C243.604 61.52 243.949 62.066 244.388 62.43C244.826 62.794 245.326 62.976 245.886 62.976C246.446 62.976 246.94 62.794 247.37 62.43C247.808 62.066 248.154 61.52 248.406 60.792C248.658 60.0547 248.784 59.1493 248.784 58.076C248.784 57.0027 248.658 56.102 248.406 55.374C248.154 54.6367 247.808 54.086 247.37 53.722C246.94 53.358 246.446 53.176 245.886 53.176Z" fill="#A5A6F6"/>
<path d="M265.922 56.088V59.602H267.812V60.134H265.922V64.194H265.334V52.238H265.922V55.556H267.812V56.088H265.922ZM259.37 52.63C260.042 52.63 260.635 52.8307 261.148 53.232C261.671 53.6333 262.077 54.2447 262.366 55.066C262.665 55.878 262.814 56.8813 262.814 58.076C262.814 59.2707 262.665 60.2787 262.366 61.1C262.077 61.912 261.671 62.5187 261.148 62.92C260.635 63.3213 260.042 63.522 259.37 63.522C258.698 63.522 258.101 63.3213 257.578 62.92C257.065 62.5187 256.659 61.912 256.36 61.1C256.071 60.2787 255.926 59.2707 255.926 58.076C255.926 56.8813 256.071 55.878 256.36 55.066C256.659 54.2447 257.065 53.6333 257.578 53.232C258.101 52.8307 258.698 52.63 259.37 52.63ZM259.37 62.976C259.921 62.976 260.411 62.794 260.84 62.43C261.27 62.066 261.606 61.52 261.848 60.792C262.091 60.0547 262.212 59.1493 262.212 58.076C262.212 57.0027 262.091 56.102 261.848 55.374C261.606 54.6367 261.27 54.086 260.84 53.722C260.411 53.358 259.921 53.176 259.37 53.176C258.82 53.176 258.33 53.358 257.9 53.722C257.471 54.086 257.135 54.6367 256.892 55.374C256.65 56.102 256.528 57.0027 256.528 58.076C256.528 59.1493 256.65 60.0547 256.892 60.792C257.135 61.52 257.471 62.066 257.9 62.43C258.33 62.794 258.82 62.976 259.37 62.976Z" fill="#A5A6F6"/>
<path d="M279.925 64.194H279.337V52.238H279.925V64.194ZM276.145 55.388C276.145 56.9653 275.888 58.3513 275.375 59.546C274.862 60.7407 274.12 61.6647 273.149 62.318C272.188 62.9713 271.049 63.298 269.733 63.298V62.738C270.909 62.738 271.936 62.444 272.813 61.856C273.69 61.2587 274.367 60.4093 274.843 59.308C275.319 58.2067 275.557 56.9187 275.557 55.444V53.344H269.733V52.798H276.145V55.388Z" fill="#A5A6F6"/>
</svg>
