<svg width="210" height="80" viewBox="0 0 210 80" fill="none" xmlns="http://www.w3.org/2000/svg">
<path d="M67.9288 58.7139L65.1202 49.4537C66.6975 46.5026 67.5319 43.1852 67.5319 39.827C67.5319 28.5519 58.3633 19.3832 47.0881 19.3832C40.2599 19.3832 34.2051 22.7515 30.4909 27.9006C22.5331 28.9488 16.3664 35.777 16.3664 44.0196C16.3664 46.6451 17.0075 49.24 18.2185 51.5499L16.0713 58.6325C15.9085 59.182 16.0509 59.7824 16.458 60.1895C16.7531 60.4846 17.1601 60.6474 17.5672 60.6474C17.7198 60.6474 17.8725 60.6271 18.0251 60.5762L25.0975 58.429C27.4075 59.64 30.0024 60.2811 32.6278 60.2811C35.0599 60.2811 37.3699 59.7417 39.4458 58.7852C41.8067 59.7417 44.3914 60.2709 47.0881 60.2709C50.4564 60.2709 53.7637 59.4364 56.7147 57.8591L65.975 60.6678C66.1276 60.7085 66.2803 60.739 66.4329 60.739C66.84 60.739 67.247 60.5762 67.5421 60.2811C67.9492 59.874 68.1018 59.2736 67.9288 58.7139ZM57.5695 55.3762C57.132 55.2439 56.6638 55.2948 56.267 55.5288C53.5194 57.1163 50.3852 57.9609 47.1899 57.9609C37.1867 57.9609 29.056 49.8302 29.056 39.827C29.056 29.8239 37.1867 21.6932 47.1899 21.6932C57.193 21.6932 65.3237 29.8239 65.3237 39.827C65.3237 43.0224 64.4791 46.1566 62.8916 48.9042C62.6678 49.301 62.6067 49.7691 62.739 50.2067L64.9879 57.6353L57.5695 55.3762Z" fill="#7879F1"/>
<path d="M50.1518 30.8733C49.581 30.6939 48.9728 31.0112 48.7934 31.5819L43.8452 47.3237C43.6657 47.8945 43.983 48.5027 44.5538 48.6821C45.1247 48.8615 45.7328 48.5441 45.9121 47.9735L50.8604 32.2317C51.0398 31.6609 50.7225 31.0527 50.1518 30.8733Z" fill="white"/>
<path d="M41.6987 35.0775C41.3249 34.5829 40.643 34.5027 40.176 34.8984L34.7592 39.4866C34.2176 39.9452 34.2173 40.819 34.7592 41.278L40.176 45.8662C40.6432 46.262 41.3251 46.1817 41.6987 45.6871C42.0725 45.1924 41.9968 44.4706 41.5295 44.0749L37.1702 40.3823L41.5295 36.6898C41.9968 36.2941 42.0725 35.5723 41.6987 35.0775Z" fill="white"/>
<path d="M59.9466 39.4867L54.5298 34.8985C54.0626 34.5027 53.3808 34.5829 53.0071 35.0776C52.6333 35.5723 52.709 36.2941 53.1763 36.6898L57.5356 40.3824L53.1763 44.0749C52.709 44.4706 52.6333 45.1924 53.0071 45.6871C53.3814 46.1823 54.0632 46.2616 54.5298 45.8662L59.9466 41.278C60.4882 40.8194 60.4885 39.9457 59.9466 39.4867Z" fill="white"/>
<path d="M110.396 47.7811V50.2957H86V47.7811H96.6963V43.3667H87.6302V28.447H108.794V30.9057H90.4616V34.6496H108.479V37.0803H90.4616V40.908H109.166V43.3667H99.5563V47.7811H110.396Z" fill="#7879F1"/>
<path d="M133.602 39.7905H115.441V37.22H133.602V31.0454H115.441V28.447H136.462V45.4342H133.602V39.7905ZM138.264 47.6973V50.2957H113.868V47.6973H138.264Z" fill="#7879F1"/>
<path d="M164.416 40.2375H143.424V28H146.226V31.3527H161.613V28H164.416V40.2375ZM161.613 37.7788V33.8114H146.226V37.7788H161.613ZM166.132 45.3504H155.378V52H152.461V45.3504H141.736V42.78H166.132V45.3504Z" fill="#7879F1"/>
<path d="M192.77 43.702H171.235V28.447H192.398V30.9336H174.066V34.8452H192.084V37.2759H174.066V41.2154H192.77V43.702ZM194 47.7532V50.2957H169.604V47.7532H194Z" fill="#7879F1"/>
</svg>
