<svg width="64" height="48" viewBox="0 0 64 48" fill="none" xmlns="http://www.w3.org/2000/svg">
<path d="M32 9C28.136 9 25 12.136 25 16C25 19.864 28.136 23 32 23C35.864 23 39 19.864 39 16C39 12.136 35.864 9 32 9ZM32 11.1C33.162 11.1 34.1 12.038 34.1 13.2C34.1 14.362 33.162 15.3 32 15.3C30.838 15.3 29.9 14.362 29.9 13.2C29.9 12.038 30.838 11.1 32 11.1ZM32 21.04C30.25 21.04 28.703 20.144 27.8 18.786C27.821 17.393 30.6 16.63 32 16.63C33.393 16.63 36.179 17.393 36.2 18.786C35.297 20.144 33.75 21.04 32 21.04Z" fill="#F8F9FA"/>
<path d="M10.792 32.33H13.302V36.8H10.792V32.33ZM9.99195 37.46H14.102V31.67H9.99195V37.46ZM18.012 34.35H16.532V30.78H15.712V39.74H16.532V35.04H18.012V34.35ZM25.5512 30.77V39.76H26.3712V30.77H25.5512ZM21.6412 31.46C20.3112 31.46 19.3612 32.68 19.3612 34.59C19.3612 36.5 20.3112 37.72 21.6412 37.72C22.9712 37.72 23.9212 36.5 23.9212 34.59C23.9212 32.68 22.9712 31.46 21.6412 31.46ZM21.6412 32.2C22.5112 32.2 23.1312 33.14 23.1312 34.59C23.1312 36.05 22.5112 36.99 21.6412 36.99C20.7612 36.99 20.1412 36.05 20.1412 34.59C20.1412 33.14 20.7612 32.2 21.6412 32.2ZM30.0004 32.57H31.1204V36.78C30.7404 36.8 30.3704 36.81 30.0004 36.82V32.57ZM31.8704 32.57H32.6104V31.91H28.5104V32.57H29.2504V36.84C28.9104 36.85 28.6104 36.85 28.3404 36.85L28.4204 37.53C29.5904 37.53 31.4704 37.49 32.8604 37.23L32.8104 36.63C32.5204 36.67 32.1904 36.7 31.8704 36.73V32.57ZM33.5704 34.19H32.3404V34.91H33.5704V39.27H34.3404V30.99H33.5704V34.19ZM35.3004 30.78V39.74H36.0904V30.78H35.3004ZM44.3496 30.77V39.76H45.1696V30.77H44.3496ZM40.4396 31.46C39.1096 31.46 38.1596 32.68 38.1596 34.59C38.1596 36.5 39.1096 37.72 40.4396 37.72C41.7696 37.72 42.7196 36.5 42.7196 34.59C42.7196 32.68 41.7696 31.46 40.4396 31.46ZM40.4396 32.2C41.3096 32.2 41.9296 33.14 41.9296 34.59C41.9296 36.05 41.3096 36.99 40.4396 36.99C39.5596 36.99 38.9396 36.05 38.9396 34.59C38.9396 33.14 39.5596 32.2 40.4396 32.2ZM50.4288 32.37H52.5388V31.69H47.5288V32.37H49.6088V33.51C49.6088 35.06 48.5188 36.75 47.2288 37.36L47.7088 38.02C48.7288 37.5 49.6088 36.37 50.0188 35.06C50.4488 36.29 51.3288 37.32 52.3688 37.8L52.8288 37.14C51.5088 36.58 50.4288 35.03 50.4288 33.51V32.37ZM53.7488 30.78V39.74H54.5688V30.78H53.7488Z" fill="#F8F9FA"/>
</svg>
