<svg width="100" height="100" viewBox="0 0 100 100" fill="none" xmlns="http://www.w3.org/2000/svg">
<path d="M55.6562 47.8168H57.2673L56.4654 45.6921L55.6562 47.8168Z" fill="#F8F9FA"/>
<path d="M62.0234 39.8663H53.0059V40.9961C53.0059 43.1446 51.2579 44.8926 49.1094 44.8926H48.6641V52.1123C48.6641 53.3421 49.6609 54.3389 50.8906 54.3389H57.921L61.0796 57.0462C61.6718 57.5538 62.5748 57.0444 62.4466 56.275L62.1235 54.3367C63.305 54.2841 64.25 53.3065 64.25 52.1123V42.0928C64.25 40.8631 63.2531 39.8663 62.0234 39.8663ZM59.3887 51.0732C59.2917 51.1098 59.192 51.1272 59.094 51.1272C58.7566 51.1272 58.4389 50.9212 58.3127 50.5868L57.8975 49.4868H55.0203L54.6005 50.5891C54.4364 51.02 53.9542 51.2364 53.523 51.0723C53.0921 50.9082 52.8758 50.4257 53.0399 49.9948L55.5481 43.4092C55.5505 43.4029 55.553 43.3965 55.5557 43.3902C55.7078 43.0183 56.0658 42.7777 56.4677 42.7774H56.4686C56.8701 42.7774 57.2281 43.0172 57.3808 43.3886C57.3839 43.3961 57.3869 43.4036 57.3898 43.4113L59.8752 49.9972C60.0379 50.4286 59.8201 50.9104 59.3887 51.0732Z" fill="#F8F9FA"/>
<path d="M43.5311 33.2031C42.157 33.2031 41.0391 34.321 41.0391 35.6952C41.0391 37.0693 42.157 38.1872 43.5311 38.1872C43.9277 38.1872 44.3027 38.0936 44.6358 37.9281L44.1647 37.4569C43.8386 37.1308 43.8386 36.6022 44.1647 36.2761C44.4907 35.9501 45.0194 35.95 45.3455 36.2761L45.7979 36.7285C45.9421 36.4134 46.0232 36.0637 46.0232 35.6951C46.0232 34.321 44.9052 33.2031 43.5311 33.2031Z" fill="#F8F9FA"/>
<path d="M51.3359 40.9961V30.9766C51.3359 29.7469 50.339 28.75 49.1094 28.75H37.9766C36.7469 28.75 35.75 29.7469 35.75 30.9766V40.9961C35.75 42.1902 36.6951 43.1679 37.8765 43.2204L37.5534 45.1587C37.4252 45.9281 38.3282 46.4376 38.9204 45.93L42.0789 43.2226H49.1094C50.339 43.2226 51.3359 42.2257 51.3359 40.9961ZM47.4732 39.5857C47.3101 39.7487 47.0964 39.8302 46.8828 39.8302C46.6691 39.8302 46.4554 39.7488 46.2924 39.5857L45.8535 39.1467C45.1895 39.5951 44.3899 39.8571 43.5302 39.8571C41.2352 39.8571 39.3682 37.9901 39.3682 35.6952C39.3682 33.4003 41.2352 31.5332 43.5301 31.5332C45.825 31.5332 47.6921 33.4003 47.6921 35.6952C47.6921 36.5277 47.4454 37.3033 47.0227 37.9545L47.4732 38.4049C47.7993 38.7309 47.7993 39.2596 47.4732 39.5857Z" fill="#F8F9FA"/>
<path d="M30.5165 69.136H29.5325V74.716H30.5165V69.136ZM28.2845 73.732C26.6885 73.264 25.5725 72.028 25.5725 70.648V70.528H28.0085V69.736H22.1045V70.528H24.5645V70.648C24.5645 72.112 23.4605 73.432 21.8405 73.948L22.3085 74.728C23.6165 74.284 24.6245 73.348 25.0805 72.16C25.5725 73.264 26.5685 74.116 27.8285 74.5L28.2845 73.732ZM24.5525 78.988V77.812H30.5285V75.232H23.5565V76H29.5565V77.08H23.5805V79.768H30.8885V78.988H24.5525ZM40.4476 72.616H35.1436V70.42H40.4476V72.616ZM41.4196 69.628H34.1836V73.408H41.4196V69.628ZM35.1436 76.576H34.1596V79.648H41.5996V78.844H35.1436V76.576ZM32.9116 74.632V75.424H37.3876V77.596H38.3716V75.424H42.6916V74.632H32.9116ZM49.7907 75.16C50.0907 73.156 50.0907 71.752 50.0907 70.888V70.3H44.6547V71.104H49.1307C49.1307 71.968 49.1067 73.276 48.8067 75.064L49.7907 75.16ZM47.3187 73.372H46.3467V76.684C45.5427 76.708 44.7507 76.72 44.0667 76.72L44.1747 77.536C46.0827 77.536 48.6147 77.488 50.8467 77.128L50.7867 76.408C49.6947 76.54 48.4947 76.612 47.3187 76.66V73.372ZM54.1467 73.624H52.4307V69.124H51.4467V79.888H52.4307V74.452H54.1467V73.624ZM64.5253 73.324C63.1213 73.612 61.8973 73.684 59.7733 73.684V70.624H63.5293V69.832H58.7893V74.5H59.6293C61.8853 74.5 63.1573 74.428 64.6333 74.116L64.5253 73.324ZM65.6773 78.904H60.8413V77.56H65.6773V78.904ZM65.6773 76.78H60.8413V75.436H59.8693V79.708H66.6493V75.436H65.6773V76.78ZM68.2453 71.644H66.6493V69.112H65.6653V74.86H66.6493V72.46H68.2453V71.644ZM77.4084 71.896V73.42H74.9244V71.896H77.4084ZM73.9524 74.464H71.0484V72.52H73.9524V74.464ZM74.9244 74.224H77.4084V77.092H78.4044V69.136H77.4084V71.104H74.9244V69.844H73.9524V71.74H71.0484V69.844H70.0764V75.256H74.9244V74.224ZM72.4644 78.844V76.312H71.4804V79.648H78.6564V78.844H72.4644Z" fill="#F8F9FA"/>
</svg>
