<svg width="64" height="48" viewBox="0 0 64 48" fill="none" xmlns="http://www.w3.org/2000/svg">
<g clip-path="url(#clip0)">
<path d="M35.5723 19.0431H36.5898L36.0833 17.7012L35.5723 19.0431Z" fill="#F8F9FA"/>
<path d="M39.5937 14.0215H33.8984V14.7351C33.8984 16.092 32.7945 17.196 31.4375 17.196H31.1562V21.7558C31.1562 22.5325 31.7859 23.1621 32.5625 23.1621H37.0028L38.9976 24.872C39.3717 25.1926 39.942 24.8708 39.861 24.3849L39.6569 23.1607C40.4031 23.1275 41 22.5101 41 21.7558V15.4277C41 14.6511 40.3704 14.0215 39.5937 14.0215ZM37.9297 21.0996C37.8684 21.1227 37.8054 21.1337 37.7436 21.1337C37.5305 21.1337 37.3298 21.0035 37.2501 20.7924L36.9879 20.0976H35.1707L34.9056 20.7938C34.8019 21.066 34.4974 21.2026 34.2251 21.099C33.9529 20.9953 33.8163 20.6906 33.9199 20.4185L35.5041 16.2591C35.5056 16.2551 35.5072 16.2511 35.5088 16.2472C35.6049 16.0122 35.831 15.8603 36.0848 15.8601H36.0854C36.339 15.8601 36.5651 16.0116 36.6616 16.2461C36.6635 16.2508 36.6654 16.2556 36.6672 16.2604L38.237 20.4199C38.3397 20.6924 38.2022 20.9967 37.9297 21.0996Z" fill="#F8F9FA"/>
<path d="M27.9138 9.8125C27.0459 9.8125 26.3398 10.5185 26.3398 11.3864C26.3398 12.2543 27.0459 12.9603 27.9138 12.9603C28.1642 12.9603 28.4011 12.9012 28.6115 12.7967L28.3139 12.4991C28.108 12.2932 28.108 11.9593 28.3139 11.7533C28.5198 11.5474 28.8538 11.5474 29.0597 11.7533L29.3454 12.039C29.4365 11.8401 29.4877 11.6191 29.4877 11.3864C29.4877 10.5185 28.7816 9.8125 27.9138 9.8125Z" fill="#F8F9FA"/>
<path d="M32.8437 14.7344V8.40625C32.8437 7.62961 32.2141 7 31.4375 7H24.4062C23.6296 7 23 7.62961 23 8.40625V14.7344C23 15.4886 23.5969 16.106 24.343 16.1392L24.139 17.3634C24.058 17.8493 24.6283 18.1711 25.0024 17.8505L26.9972 16.1406H31.4375C32.2141 16.1406 32.8437 15.511 32.8437 14.7344ZM30.4041 13.8436C30.3011 13.9465 30.1661 13.9981 30.0312 13.9981C29.8963 13.9981 29.7613 13.9466 29.6584 13.8436L29.3811 13.5663C28.9618 13.8495 28.4568 14.015 27.9138 14.015C26.4643 14.015 25.2852 12.8359 25.2852 11.3864C25.2852 9.93702 26.4643 8.75781 27.9137 8.75781C29.3632 8.75781 30.5424 9.93702 30.5424 11.3864C30.5424 11.9122 30.3866 12.4021 30.1196 12.8134L30.4041 13.0978C30.6101 13.3038 30.6101 13.6376 30.4041 13.8436Z" fill="#F8F9FA"/>
<path d="M15.2638 30.78H14.4438V35.43H15.2638V30.78ZM13.4038 34.61C12.0738 34.22 11.1438 33.19 11.1438 32.04V31.94H13.1738V31.28H8.25379V31.94H10.3038V32.04C10.3038 33.26 9.38379 34.36 8.03379 34.79L8.42379 35.44C9.51379 35.07 10.3538 34.29 10.7338 33.3C11.1438 34.22 11.9738 34.93 13.0238 35.25L13.4038 34.61ZM10.2938 38.99V38.01H15.2738V35.86H9.46379V36.5H14.4638V37.4H9.48379V39.64H15.5738V38.99H10.2938ZM23.573 33.68H19.153V31.85H23.573V33.68ZM24.383 31.19H18.353V34.34H24.383V31.19ZM19.153 36.98H18.333V39.54H24.533V38.87H19.153V36.98ZM17.293 35.36V36.02H21.023V37.83H21.843V36.02H25.443V35.36H17.293ZM31.3922 35.8C31.6422 34.13 31.6422 32.96 31.6422 32.24V31.75H27.1122V32.42H30.8422C30.8422 33.14 30.8222 34.23 30.5722 35.72L31.3922 35.8ZM29.3322 34.31H28.5222V37.07C27.8522 37.09 27.1922 37.1 26.6222 37.1L26.7122 37.78C28.3022 37.78 30.4122 37.74 32.2722 37.44L32.2222 36.84C31.3122 36.95 30.3122 37.01 29.3322 37.05V34.31ZM35.0222 34.52H33.5922V30.77H32.7722V39.74H33.5922V35.21H35.0222V34.52ZM43.7378 34.27C42.5678 34.51 41.5478 34.57 39.7778 34.57V32.02H42.9078V31.36H38.9578V35.25H39.6578C41.5378 35.25 42.5978 35.19 43.8278 34.93L43.7378 34.27ZM44.6978 38.92H40.6678V37.8H44.6978V38.92ZM44.6978 37.15H40.6678V36.03H39.8578V39.59H45.5078V36.03H44.6978V37.15ZM46.8378 32.87H45.5078V30.76H44.6878V35.55H45.5078V33.55H46.8378V32.87ZM54.507 33.08V34.35H52.437V33.08H54.507ZM51.627 35.22H49.207V33.6H51.627V35.22ZM52.437 35.02H54.507V37.41H55.337V30.78H54.507V32.42H52.437V31.37H51.627V32.95H49.207V31.37H48.397V35.88H52.437V35.02ZM50.387 38.87V36.76H49.567V39.54H55.547V38.87H50.387Z" fill="#F8F9FA"/>
</g>
<defs>
<clipPath id="clip0">
<rect width="64" height="48" fill="white"/>
</clipPath>
</defs>
</svg>
